<?xml version="1.0" encoding="UTF-8" standalone="no"?> <!-- Created with Vectornator for iOS (http://vectornator.io/) --><!DOCTYPE svg PUBLIC "-//W3C//DTD SVG 1.1//EN" "http://www.w3.org/Graphics/SVG/1.1/DTD/svg11.dtd">
<svg height="100%" style="fill-rule:evenodd;clip-rule:evenodd;stroke-linecap:round;stroke-linejoin:round;" xmlns:xlink="http://www.w3.org/1999/xlink" xmlns="http://www.w3.org/2000/svg" xml:space="preserve" width="100%" xmlns:vectornator="http://vectornator.io" version="1.1" viewBox="0 0 2732 2048">
<metadata>
<vectornator:setting key="DisplayWhiteBackground" value="0"/>
<vectornator:setting key="RulersVisible" value="1"/>
<vectornator:setting key="Units" value="Pixels"/>
<vectornator:setting key="New" value="1"/>
<vectornator:setting key="DynamicGuides" value="0"/>
<vectornator:setting key="GuidesVisible" value="1"/>
<vectornator:setting key="SnapToPoints" value="0"/>
<vectornator:setting key="SnapToGrid" value="0"/>
<vectornator:setting key="SnapToGuides" value="1"/>
<vectornator:setting key="DimensionsVisible" value="1"/>
<vectornator:setting key="SnapToEdges" value="0"/>
</metadata>
<defs/>
<g id="Слой 3" vectornator:layerName="Слой 3">
<path d="M-33.5844+2515.1L2763.24+2515.1L2763.24+4606.34L-33.5844+4606.34L-33.5844+2515.1Z" opacity="1" fill="#ffffff"/>
<path d="M-94.017-49.6632L2770.49-49.6632L2770.49+2111.41L-94.017+2111.41L-94.017-49.6632Z" opacity="1" fill="#192841"/>
<path d="M1705.67+2561.03L1705.67+2561.03C1707.67+2561.03+1709.29+2562.65+1709.29+2564.65L1709.29+2569.49C1709.29+2571.49+1707.67+2573.11+1705.67+2573.11L1705.67+2573.11C1703.67+2573.11+1702.04+2571.49+1702.04+2569.49L1702.04+2564.65C1702.04+2562.65+1703.67+2561.03+1705.67+2561.03Z" opacity="1" fill="#192841"/>
<path d="M1686.33+3056.58L1686.33+3056.58C1687+3056.58+1687.54+3057.12+1687.54+3057.78L1687.54+3072.29C1687.54+3072.96+1687+3073.5+1686.33+3073.5L1686.33+3073.5C1685.66+3073.5+1685.12+3072.96+1685.12+3072.29L1685.12+3057.78C1685.12+3057.12+1685.66+3056.58+1686.33+3056.58Z" opacity="1" fill="#192841"/>
</g>
<g id="Слой 2" vectornator:layerName="Слой 2">
<path stroke="#ffd700" stroke-width="7" d="M1301.29+715.558L1326.79+763.722L1229.05+811.887L1191.15+742.119" fill="none" stroke-linecap="round" opacity="1" stroke-linejoin="round"/>
<path stroke="#ffd700" stroke-width="7" d="M1190.83+742.302C1190.83+742.302+1176.28+742.67+1172.12+742.469C1167.95+742.268+1165.68+741.775+1161.78+740.444C1157.88+739.113+1155.17+737.581+1151.36+734.928C1147.55+732.276+1143.29+728.335+1140.87+723.766C1138.45+719.197+1136.25+713.545+1135.25+709.238C1134.25+704.931+1133.62+698.55+1134.07+694.11C1134.53+689.669+1135.77+684.955+1137.64+680.591C1139.51+676.227+1141.18+673.141+1146.71+667.82C1152.23+662.498+1157.29+660.722+1161.2+659.102C1165.12+657.481+1169.57+656.197+1172.72+655.664C1175.86+655.132+1185.25+654.829+1185.25+654.829C1187.85+654.655+1190.7+656.045+1193.51+658.071C1196.32+660.096+1197.58+662.123+1198.94+664.715C1200.29+667.307+1200.85+669.23+1199.41+671.865C1197.98+674.499+1195.53+675.671+1193.21+675.435C1190.9+675.2+1189.78+674.328+1187.78+671.941C1185.79+669.553+1184.79+666.075+1184.58+662.158C1184.38+658.24+1185.1+656.696+1187.42+650.908C1189.16+646.583+1191.88+643.284+1195.06+640.698C1198.23+638.112+1199.71+636.804+1203.17+635.119C1204.96+634.246+1205.53+633.882+1208.24+633.247C1210.94+632.613+1214.67+632.118+1216.34+632.027C1219.8+631.839+1222.39+632.21+1225.62+632.687C1228.85+633.165+1230.38+633.431+1234.03+635.066C1237.67+636.7+1239.63+637.282+1242.78+640.288C1245.92+643.295+1246.56+645.03+1247.87+648.3C1249.18+651.57+1249.52+654.936+1248.48+657.173C1247.45+659.41+1244.37+661.354+1241.44+661.165C1238.52+660.976+1235.4+657.55+1234.51+655.723C1233.62+653.897+1232.34+651.783+1232.39+648.003C1232.45+644.224+1232.73+643.785+1233.67+640.388C1234.62+636.991+1238.08+632.029+1240.51+629.017C1242.94+626.004+1244.24+625.258+1247.29+623.179C1250.34+621.1+1255.08+618.911+1259.09+617.451C1263.1+615.991+1267.32+615.101+1271.3+614.711C1275.29+614.321+1282.42+614.23+1287.34+615.091C1292.26+615.953+1290.67+615.377+1295.82+617.172C1298.22+618.009+1301.33+620.066+1305.26+623.538C1309.18+627.01+1309.88+628.135+1312.82+632.572C1315.77+637.008+1317.7+640.857+1318.73+644.126C1319.77+647.395+1321.49+652.234+1322.02+655.19C1322.59+658.316+1323.48+662.151+1323.96+664.953C1324.82+669.911+1324.74+670.875+1324.85+675.419C1324.96+679.964+1324.27+685.737+1323.27+689.236C1322.27+692.735+1321.23+695.099+1318.44+699.169C1315.66+703.24+1314.55+704.362+1311.12+707.586C1307.69+710.81+1301.74+714.796+1301.74+714.796" fill="none" stroke-linecap="round" opacity="1" stroke-linejoin="round"/>
<path stroke="#ffd700" stroke-width="7" d="M1212.84+747.776L1235.92+792.96L1311.33+756.878" fill="none" stroke-linecap="round" opacity="1" stroke-linejoin="round"/>
<path stroke="#ffd700" stroke-width="7" d="M1384.4+837.592C1384.4+837.592+1381.2+824.546+1376.74+814.755C1374.56+809.953+1369.72+803.281+1368.43+801.581C1364.11+795.895+1357.54+790.441+1354.83+788.819C1349.65+785.722+1346.75+783.343+1336.71+780.736C1326.67+778.128+1316.37+778.432+1309.72+779.302C1303.08+780.172+1286.91+786.993+1286.91+786.993C1286.91+786.993+1275.03+793.282+1268.66+798.987C1262.29+804.692+1255.83+814.421+1252.85+823.303C1249.87+832.184+1247.94+852.717+1248.34+858.439L1250.83+894.004C1251.23+899.726+1253.36+908.651+1255.58+913.938L1263.66+933.151C1265.89+938.439+1271.07+945.917+1275.24+949.854L1298.5+971.805C1302.67+975.743+1310.34+980.863+1315.69+982.163C1321.03+983.463+1328.99+983.497+1333.41+979.839L1340.36+974.086C1344.77+970.428+1351.21+963.792+1354.73+959.264L1364.56+946.621C1368.09+942.093+1372.7+934.12+1374.88+928.812L1379.19+918.277C1381.37+912.969+1383.92+906.4+1385.65+897.542C1387.37+888.683+1388.07+881.997+1388.93+871.696C1389.79+861.395+1388.84+856.695+1387.29+848.106C1385.73+839.517+1384+836.209+1379.9+829.029C1375.8+821.85+1369.93+816.477+1365.14+813.318L1364.55+812.929C1359.76+809.769+1351.24+807.075+1345.5+806.911L1341.17+806.787C1335.44+806.623+1327.59+809.87+1323.65+814.038L1319.28+818.662C1315.34+822.83+1311.24+830.771+1310.13+836.398L1308.42+845.059C1307.31+850.686+1307.49+859.772+1308.81+865.352L1313.58+885.363L1318.8+908.221C1320.07+913.813+1321.37+922.989+1321.7+928.715L1322.31+939.526C1322.64+945.253+1322.71+954.541+1322.47+960.272L1321.72+982.526" fill="none" stroke-linecap="round" opacity="1" stroke-linejoin="round"/>
<path stroke="#ffd700" stroke-width="7" d="M1234.67+811.082L1232.33+823.817C1231.92+827.801+1232.14+834.876+1232.5+838.866C1232.5+838.866+1233.05+845.022+1234.12+849.851C1235.18+854.68+1236.38+857.049+1238.96+861.808C1241.55+866.566+1244.61+870.909+1244.61+870.909C1246.92+874.185+1245.54+876.841+1241.53+876.841L1240.81+876.841C1236.8+876.841+1233.16+880.065+1232.68+884.042L1232.58+884.873C1232.09+888.85+1233.15+894.979+1234.94+898.562L1236.26+901.189C1238.05+904.773+1239.81+908.363+1244.73+913.09C1249.65+917.818+1253.91+919.176+1257.85+919.881" fill="none" stroke-linecap="round" opacity="1" stroke-linejoin="round"/>
<path stroke="#ffd700" stroke-width="7" d="M1291.81+1085.73L1358.93+1007.34" fill="none" stroke-linecap="round" opacity="1" stroke-linejoin="round"/>
<path stroke="#ffd700" stroke-width="7" d="M1274.44+1008.09L1327.92+1041.25" fill="none" stroke-linecap="round" opacity="1" stroke-linejoin="round"/>
<path stroke="#ffd700" stroke-width="7" d="M1291.72+1085.86L1303.36+1125.23C1306.84+1136.99+1313.35+1168.41+1313.35+1168.41C1315.38+1180.5+1313.35+1168.41+1313.35+1168.41C1313.35+1168.41+1318.07+1200.18+1319.33+1212.37L1321.6+1234.15C1322.87+1246.34+1324.49+1266.14+1325.22+1278.38L1327.06+1308.97" fill="none" stroke-linecap="round" opacity="1" stroke-linejoin="round"/>
<path stroke="#ffd700" stroke-width="7" d="M1332.53+1058.72L1389.36+1008.09" fill="none" stroke-linecap="round" opacity="1" stroke-linejoin="round"/>
<path stroke="#ffd700" stroke-width="7" d="M1274.21+949.729L1277.45+985.819C1277.79+990.49+1276.9+997.889+1275.45+1002.34L1274.2+1006.19C1272.75+1010.65+1268.01+1015.57+1263.62+1017.18L1249.57+1022.33C1245.17+1023.94+1237.89+1026.04+1233.3+1027L1204.94+1032.99C1200.36+1033.96+1177.76+1039.42+1164.57+1050.75C1151.39+1062.09+1142.3+1081.07+1142.3+1081.07C1139.75+1085.01+1135.83+1091.51+1133.53+1095.59L1104.22+1147.65L1074.74+1200.6L1062.75+1223.09C1060.54+1227.23+1057.2+1231.41+1056.5+1239.07C1055.81+1246.74+1057.1+1250.06+1059.98+1253.75L1069.03+1265.36C1071.91+1269.05+1077.02+1274.64+1080.44+1277.84L1120.71+1315.51L1145.37+1338.16L1174.54+1366.88" fill="none" stroke-linecap="round" opacity="1" stroke-linejoin="round"/>
<path stroke="#ffd700" stroke-width="7" d="M1222.36+1357.55L1178.17+1299.7L1130.12+1236.01C1128.04+1233.25+1128.13+1228.85+1130.32+1226.17L1153.67+1197.67L1180.03+1166.61C1181.25+1165.14+1191.71+1151.03+1193.59+1148.88C1195.11+1147.15+1201.75+1135.91+1201.75+1135.91C1201.75+1135.91+1206.66+1142.76+1208.95+1147.24C1211.24+1151.73+1212.14+1154.08+1213.4+1157.3L1219.26+1172.17C1220.53+1175.38+1222.31+1180.69+1223.24+1184.02L1229.51+1206.51C1230.44+1209.84+1231.5+1215.32+1231.88+1218.75L1235.74+1254.12C1236.11+1257.55+1236.44+1263.14+1236.47+1266.59L1236.77+1303.49C1236.8+1306.94+1236.72+1312.54+1236.6+1316L1235.21+1356.34" fill="none" stroke-linecap="round" opacity="1" stroke-linejoin="round"/>
<path stroke="#ffd700" stroke-width="7" d="M1351.38+963.904L1350.89+983.384C1350.74+987.931+1352.17+994.962+1354.09+999.088L1355.61+1002.36C1357.53+1006.49+1362.77+1009.99+1367.32+1010.18L1370.77+1010.33C1375.31+1010.52+1382.51+1009.54+1386.83+1008.14L1394.67+1005.6L1409.65+1001.16C1414.01+999.867+1421.23+998.677+1425.78+998.503C1425.78+998.503+1446.79+997.53+1458.41+1000.14C1470.03+1002.74+1500.38+1014.02+1500.38+1014.02C1504.7+1015.45+1511.78+1017.49+1516.2+1018.58L1558.66+1029.04C1563.08+1030.13+1570.31+1031.54+1574.81+1032.2L1581.8+1033.22C1586.31+1033.87+1590.82+1030.82+1591.89+1026.39L1597.34+1003.86C1598.41+999.439+1599.87+992.213+1600.59+987.721L1605.58+956.966C1606.31+952.474+1607.32+945.168+1607.84+940.648L1612.47+913.612C1612.99+909.091+1616.46+899.229+1616.31+894.681L1617.39+882.672L1615.49+870.582" fill="none" stroke-linecap="round" opacity="1" stroke-linejoin="round"/>
<path stroke="#ffd700" stroke-width="7" d="M1615.53+870.518C1615.53+870.518+1611.75+853.858+1611.61+852.799C1611.61+852.799+1610.33+845.904+1610.53+844.854L1610.18+838.737C1610.38+837.687+1610.98+833.362+1611.42+832.386L1612.83+828.005C1613.26+827.03+1614.77+822.476+1615.74+822.035C1615.74+822.035+1619.62+820.613+1620.69+821.434C1621.77+822.254+1622.7+825.217+1622.68+826.285L1621.73+830.249C1621.7+831.317+1620.82+834.946+1621.1+835.979L1620.76+843.953C1620.91+844.541+1621.74+845.852+1622.77+847.852C1624.1+850.45+1627.97+846.945+1627.97+846.945L1631.93+841.499C1632.51+840.604+1634.62+836.419+1635.14+835.486C1635.14+835.486+1636.42+832.265+1637.3+829.972C1638.19+827.678+1638.11+827.017+1637.91+824.766C1637.72+822.515+1637.66+821.705+1636.17+819.802C1634.67+817.898+1632.91+818.053+1631.84+818.125L1629.19+818.396L1625.03+818.774C1623.96+818.819+1622.97+815.53+1622.97+815.53C1623.5+814.602+1626.06+811.607+1627.03+811.15L1630.71+810.015C1631.67+809.559+1633.83+809.405+1634.87+809.636L1638.33+810.339C1639.37+810.571+1641.31+811.378+1642.17+812.016L1644.76+813.908C1645.62+814.545+1647.15+817.324+1647.39+818.364L1648.39+822.579C1648.64+823.619+1648.86+825.328+1648.88+826.397L1646.59+834.003C1646.61+835.072+1652.92+822.41+1652.92+822.41C1653.67+821.648+1655.12+817.062+1655.12+817.062C1655.7+816.165+1656.38+813.306+1656.73+812.294L1657.56+808.556C1657.91+807.544+1657.99+804.019+1657.95+802.951C1657.95+802.951+1655.87+798.732+1655.26+796.366C1654.65+794+1653.71+791.617+1656.27+790.016C1658.82+788.415+1661+790.65+1662.47+792.497C1664.31+794.808+1663.67+794.123+1664.91+796.701C1666.78+800.575+1666.74+800.815+1667.35+804.904C1667.96+808.994+1667.55+806.118+1667.65+808.012C1667.76+809.906+1667.84+810.524+1667.41+812.335C1666.98+814.146+1666.93+814.977+1666.22+817.666C1665.75+819.492+1664.78+823.054+1663.69+825.71C1661.95+829.946+1656.47+837.564+1656.47+837.564C1656.16+838.588+1665.52+828.424+1665.52+828.424C1666.36+827.768+1667.53+826.52+1668.13+825.635L1669.94+822.976C1670.54+822.092+1671.47+820.632+1672.01+819.714L1674.17+815.041C1674.72+814.123+1675.46+811.078+1675.46+807.85C1675.46+804.621+1674.92+801.5+1675.03+800.477C1675.1+799.787+1674.79+797.461+1675.32+795.461C1675.73+793.912+1675.84+793.105+1677.4+792.836C1678.96+792.567+1681.22+793.535+1682.03+796.818C1682.83+800.1+1683.48+801.769+1683.8+806.343C1684.13+810.917+1684.07+811.9+1683.86+814.395C1683.64+816.89+1682.35+819.096+1681.76+820.872C1681.17+822.648+1680.38+824.105+1678.8+826.361C1677.22+828.617+1675.78+830.095+1675.46+830.828C1675.15+831.56+1673.19+833.243+1672.8+834.239L1665.39+841.717C1665+842.713+1673.29+835.82+1673.98+834.997L1678.67+830.138C1678.67+830.138+1681.45+827.031+1682.54+825.515C1683.63+823.998+1684.27+823.401+1685.88+821.43C1687.48+819.459+1688.11+817.966+1689.49+816.188C1690.87+814.41+1692.9+809.923+1694.93+812.716C1696.96+815.509+1695.54+819.524+1693.98+822.247C1692.41+824.97+1691.15+827.146+1689.62+829.395C1688.1+831.644+1684.26+836.362+1682.07+839.266C1679.87+842.17+1670.74+851.397+1670.74+851.397C1670.03+852.197+1668.93+853.539+1668.29+854.394L1659.64+865.936C1659+866.791+1658.1+868.266+1657.64+869.231L1653.35+878.219C1653.58+879.687+1652.55+899.306+1652.61+900.791L1654.24+947.357C1654.29+948.842+1654.4+951.248+1654.48+952.731L1655.41+1004.76C1655.49+1006.25+1653.49+1041.09+1653.49+1041.09C1653.32+1042.57+1652.6+1047.33+1652.14+1048.75C1652.14+1048.75+1646.92+1082.12+1642.89+1087.23C1638.86+1092.35+1627.43+1093.02+1627.43+1093.02C1626.18+1093.83+1569.54+1091.87+1569.54+1091.87C1568.05+1091.81+1565.65+1091.74+1564.16+1091.73L1458.87+1090.84L1446.06+1090.84C1444.58+1090.84+1442.17+1090.77+1440.69+1090.7L1428.75+1090.07C1427.26+1089.99+1427.91+1089.35+1428.2+1090.81C1428.2+1090.81+1433.57+1114.66+1435.8+1129.43C1438.02+1144.2+1438.54+1149.9+1441.45+1169.63C1444.37+1189.37+1445.39+1202.52+1448.74+1232.73C1452.08+1262.95+1451.52+1267.33+1452.78+1290.17C1454.04+1313.01+1450.84+1339.35+1450.84+1339.35" fill="none" stroke-linecap="round" opacity="1" stroke-linejoin="round"/>
<path stroke="#ffd700" stroke-width="7" d="M1324.4+1089.22C1324.4+1086.27+1326.78+1083.89+1329.72+1083.89C1332.66+1083.89+1335.05+1086.27+1335.05+1089.22C1335.05+1092.16+1332.66+1094.54+1329.72+1094.54C1326.78+1094.54+1324.4+1092.16+1324.4+1089.22Z" fill="none" stroke-linecap="round" opacity="1" stroke-linejoin="round"/>
<path stroke="#ffd700" stroke-width="7" d="M1372.15+1127.07C1372.15+1124.13+1374.54+1121.74+1377.48+1121.74C1380.42+1121.74+1382.81+1124.13+1382.81+1127.07C1382.81+1130.01+1380.42+1132.4+1377.48+1132.4C1374.54+1132.4+1372.15+1130.01+1372.15+1127.07Z" fill="none" stroke-linecap="round" opacity="1" stroke-linejoin="round"/>
<path stroke="#ffd700" stroke-width="7" d="M1363.03+1084.31C1363.03+1081.37+1365.41+1078.99+1368.35+1078.99C1371.3+1078.99+1373.68+1081.37+1373.68+1084.31C1373.68+1087.26+1371.3+1089.64+1368.35+1089.64C1365.41+1089.64+1363.03+1087.26+1363.03+1084.31Z" fill="none" stroke-linecap="round" opacity="1" stroke-linejoin="round"/>
<path stroke="#ffd700" stroke-width="7" d="M1336.62+1131.1C1336.62+1128.15+1339+1125.77+1341.95+1125.77C1344.89+1125.77+1347.27+1128.15+1347.27+1131.1C1347.27+1134.04+1344.89+1136.42+1341.95+1136.42C1339+1136.42+1336.62+1134.04+1336.62+1131.1Z" fill="none" stroke-linecap="round" opacity="1" stroke-linejoin="round"/>
<path stroke="#ffd700" stroke-width="7" d="M1345.89+1174.29C1345.89+1171.35+1348.27+1168.96+1351.21+1168.96C1354.16+1168.96+1356.54+1171.35+1356.54+1174.29C1356.54+1177.23+1354.16+1179.61+1351.21+1179.61C1348.27+1179.61+1345.89+1177.23+1345.89+1174.29Z" fill="none" stroke-linecap="round" opacity="1" stroke-linejoin="round"/>
<path stroke="#ffd700" stroke-width="7" d="M1352.74+1215.44C1352.74+1212.49+1355.13+1210.11+1358.07+1210.11C1361.01+1210.11+1363.4+1212.49+1363.4+1215.44C1363.4+1218.38+1361.01+1220.76+1358.07+1220.76C1355.13+1220.76+1352.74+1218.38+1352.74+1215.44Z" fill="none" stroke-linecap="round" opacity="1" stroke-linejoin="round"/>
<path stroke="#ffd700" stroke-width="7" d="M1352.74+1215.44C1352.74+1212.49+1355.13+1210.11+1358.07+1210.11C1361.01+1210.11+1363.4+1212.49+1363.4+1215.44C1363.4+1218.38+1361.01+1220.76+1358.07+1220.76C1355.13+1220.76+1352.74+1218.38+1352.74+1215.44Z" fill="none" stroke-linecap="round" opacity="1" stroke-linejoin="round"/>
<path stroke="#ffd700" stroke-width="7" d="M1359.58+1258.26C1359.58+1255.32+1361.96+1252.93+1364.9+1252.93C1367.85+1252.93+1370.23+1255.32+1370.23+1258.26C1370.23+1261.2+1367.85+1263.58+1364.9+1263.58C1361.96+1263.58+1359.58+1261.2+1359.58+1258.26Z" fill="none" stroke-linecap="round" opacity="1" stroke-linejoin="round"/>
<path stroke="#ffd700" stroke-width="7" d="M1394.87+1258.61C1394.87+1255.67+1397.25+1253.28+1400.2+1253.28C1403.14+1253.28+1405.52+1255.67+1405.52+1258.61C1405.52+1261.55+1403.14+1263.94+1400.2+1263.94C1397.25+1263.94+1394.87+1261.55+1394.87+1258.61Z" fill="none" stroke-linecap="round" opacity="1" stroke-linejoin="round"/>
<path stroke="#ffd700" stroke-width="7" d="M1388.5+1214C1388.5+1211.06+1390.89+1208.68+1393.83+1208.68C1396.77+1208.68+1399.16+1211.06+1399.16+1214C1399.16+1216.95+1396.77+1219.33+1393.83+1219.33C1390.89+1219.33+1388.5+1216.95+1388.5+1214Z" fill="none" stroke-linecap="round" opacity="1" stroke-linejoin="round"/>
<path stroke="#ffd700" stroke-width="7" d="M1380.18+1171.65C1380.18+1168.71+1382.56+1166.32+1385.5+1166.32C1388.45+1166.32+1390.83+1168.71+1390.83+1171.65C1390.83+1174.59+1388.45+1176.98+1385.5+1176.98C1382.56+1176.98+1380.18+1174.59+1380.18+1171.65Z" fill="none" stroke-linecap="round" opacity="1" stroke-linejoin="round"/>
<path stroke="#ffd700" stroke-width="7" d="M1616.98+877.533C1616.98+877.533+1630.28+882.294+1636.35+882.173C1642.42+882.051+1653.34+878.921+1653.34+878.921L1652.27+891.06C1652.27+891.06+1645.17+893.665+1641.09+894.439C1637+895.213+1634.77+894.925+1628.38+893.488C1621.99+892.052+1617.46+888.859+1617.46+888.859" fill="none" stroke-linecap="round" opacity="1" stroke-linejoin="round"/>
<path stroke="#ffd700" stroke-width="7" d="M1165.12+1356.38C1165.12+1356.38+1171.03+1347.87+1182.89+1344.94C1194.74+1342+1212.09+1344.4+1212.09+1344.4L1222.26+1357.59C1222.26+1357.59+1200.45+1355.67+1188.5+1357.93C1176.55+1360.18+1174.44+1366.61+1174.44+1366.61" fill="none" stroke-linecap="round" opacity="1" stroke-linejoin="round"/>
<path stroke="#ffd700" stroke-width="7" d="M1326.9+764.149C1326.9+764.149+1336.87+766.546+1344.24+770.691C1351.6+774.836+1353.93+775.694+1360.99+784.291C1368.05+792.888+1376.43+813.325+1376.43+813.325" fill="none" stroke-linecap="round" opacity="1" stroke-linejoin="round"/>
<path stroke="#ffd700" stroke-width="7" d="M754.087+1304.55C754.087+1304.55+756.479+1308.54+760.854+1308.38C765.229+1308.23+767.899+1307.03+768.428+1304.31C768.957+1301.58+766.566+1297.1+762.485+1296.47C758.404+1295.84+753.733+1296.35+751.763+1297.8C751.763+1297.8+749.057+1298.97+746.263+1302.08C743.468+1305.19+742.815+1306.78+742.417+1311.06C742.018+1315.34+743.229+1319.85+745.593+1324.11C747.957+1328.36+749.021+1330+750.752+1331.65L762.342+1342.67C764.073+1344.31+767.453+1346.32+769.892+1347.14C769.892+1347.14+784.63+1348.8+791.683+1348.65C798.737+1348.51+809.794+1347.56+819.604+1344.59C829.415+1341.63+849.944+1332.03+851.741+1330.43L858.793+1324.17C860.59+1322.57+861.225+1319.65+860.211+1317.63L858.921+1315.07C857.908+1313.05+854.982+1311.73+852.386+1312.11L844.919+1313.2C842.323+1313.58+838.294+1314.65+835.92+1315.6L807.477+1326.95C805.103+1327.9+801.377+1329.62+799.154+1330.79L784.383+1338.59C782.16+1339.77+778.49+1341.57+776.185+1342.63L749.932+1354.68L709.483+1372.79C707.165+1373.82+703.443+1375.56+701.172+1376.67L681.288+1386.35C679.016+1387.46+675.376+1389.31+673.157+1390.49L663.663+1395.53C661.444+1396.71+657.51+1397.7+654.875+1397.75L650.196+1397.84C647.561+1397.9+643.35+1397.51+640.791+1396.99L628.562+1394.5C626.003+1393.98+623.715+1391.8+623.453+1389.62L623.411+1389.27C623.148+1387.1+625.068+1385.23+627.699+1385.1L634.047+1384.77C636.678+1384.63+640.468+1385.64+642.512+1387.02L649.33+1391.61C651.374+1392.99+654.156+1395.61+655.543+1397.46L663.417+1407.99C664.805+1409.85+666.638+1413.02+667.512+1415.08L672.946+1427.88C673.82+1429.94+675.541+1433.17+676.791+1435.09L683.841+1445.93C685.09+1447.85+687.457+1450.78+689.126+1452.47L703.917+1467.43C705.586+1469.12+708.843+1471.29+711.191+1472.28L720.214+1476.09C722.563+1477.08+726.604+1477.91+729.239+1477.94L747.287+1478.15" fill="none" stroke-linecap="round" opacity="1" stroke-linejoin="round"/>
<path stroke="#ffd700" stroke-width="7" d="M872.626+1436.38C872.626+1436.38+874.884+1434.51+875.602+1427.8C876.319+1421.09+873.789+1418.24+873.789+1418.24C872.01+1415.76+873.789+1418.24+873.789+1418.24C873.789+1418.24+871.395+1415.15+864.301+1413.22C857.206+1411.28+852.132+1411.52+842.881+1412.09C833.63+1412.66+824.213+1417.19+816.213+1422.28C808.212+1427.38+804.473+1430.24+798.137+1436.36C791.801+1442.49+788.472+1446.27+784.803+1453.38C781.134+1460.49+782.13+1466.95+782.13+1466.95C782.307+1469.83+784.416+1476.96+792.211+1477.81C800.007+1478.66+804.11+1478.15+811.905+1475.78C819.7+1473.4+824.276+1471.34+824.276+1471.34C827.531+1470.32+832.3+1467.96+834.928+1466.07L845.317+1458.61C847.945+1456.72+852.061+1453.53+854.51+1451.49L876.088+1433.45C878.537+1431.41+882.898+1428.49+885.829+1426.93L887.841+1425.87" fill="none" stroke-linecap="round" opacity="1" stroke-linejoin="round"/>
<path stroke="#ffd700" stroke-width="7" d="M833.855+1466.78L822.534+1476.61C820.479+1478.68+817.622+1481.72+817.495+1485.08C817.369+1488.45+821.678+1490.5+826.429+1490.27C831.181+1490.05+834.625+1489.56+837.519+1488.37L846.368+1485.29C849.262+1484.09+855.987+1480.21+858.508+1478.53L867.409+1472.6" fill="none" stroke-linecap="round" opacity="1" stroke-linejoin="round"/>
<path stroke="#ffd700" stroke-width="7" d="M1093.43+1505.14L1092.12+1503.04C1090.66+1500.7+1091.82+1497.93+1094.73+1496.85L1095.54+1496.54C1098.44+1495.46+1101.87+1496.53+1103.18+1498.93L1104.08+1500.56C1105.39+1502.96+1105.02+1506.67+1103.24+1508.86L1101.47+1511.03C1099.69+1513.21+1095.72+1514.57+1092.59+1514.07C1092.59+1514.07+1081.79+1513.53+1077.17+1506.96C1072.55+1500.4+1074.22+1489.7+1077.08+1483.17C1079.95+1476.63+1081.78+1473.76+1089.11+1464.61C1096.43+1455.45+1103.24+1450.93+1111.27+1445.53C1119.31+1440.13+1128.69+1436.03+1140.24+1433.62C1151.78+1431.22+1159.34+1429.28+1176.59+1431.36C1193.85+1433.44+1195.03+1435.07+1206.3+1440.53C1217.57+1445.98+1226.21+1454.27+1230.56+1464.68C1234.9+1475.09+1234.48+1481.19+1232.03+1491.66C1229.58+1502.13+1226.54+1507.4+1222.21+1511.86C1217.88+1516.32+1210.11+1523.48+1193.3+1529.36C1176.5+1535.24+1175.66+1534.13+1175.66+1534.13C1172.63+1534.95+1171.69+1537.34+1173.55+1539.48C1173.55+1539.48+1179.75+1545.49+1183.21+1551.12C1186.67+1556.75+1187.57+1561.29+1187.27+1567.45C1186.97+1573.62+1183.68+1579.82+1183.68+1579.82C1182.32+1582.21+1180.26+1585.63+1176.76+1589.42C1173.27+1593.21+1167.83+1596.45+1161.57+1599.54C1155.31+1602.63+1141.46+1606.75+1131.42+1609.32C1121.38+1611.89+1106.99+1613.82+1106.99+1613.82C1103.88+1614.39+1098.78+1614.89+1095.6+1614.95L1078.52+1615.23C1075.34+1615.28+1070.18+1615.3+1067+1615.28L1048.51+1615.13C1045.32+1615.11+1037.02+1616.53+1032.81+1618.33C1028.61+1620.14+1025.74+1623.96+1025.3+1625.53C1024.86+1627.11+1025.03+1631.02+1028.58+1633.02C1032.14+1635.02+1036.2+1634.78+1039.3+1634.19C1039.3+1634.19+1044.53+1633.05+1048.84+1629.99C1053.15+1626.92+1055.52+1624.58+1055.52+1624.58C1057.38+1622.45+1060.54+1619.07+1062.59+1617.05L1075.58+1604.21C1077.62+1602.19+1080.84+1598.85+1082.77+1596.76L1092.2+1586.53C1094.13+1584.43+1097.14+1580.96+1098.92+1578.78L1119.77+1553.2L1145.54+1520.37L1161.12+1500.21" fill="none" stroke-linecap="round" opacity="1" stroke-linejoin="round"/>
<path stroke="#ffd700" stroke-width="7" d="M1369.32+1549.46C1369.32+1549.46+1368.11+1545.43+1364.63+1541.78C1361.16+1538.13+1358.53+1535.91+1352.18+1534.83C1345.82+1533.75+1340.98+1535.8+1335.54+1538.6C1330.09+1541.4+1323.7+1548.42+1321.72+1551.39L1317.38+1557.91C1315.4+1560.87+1312.72+1565.88+1311.38+1569.08L1308.19+1576.74C1306.86+1579.94+1305.45+1585.28+1305.06+1588.65L1303.82+1599.24C1303.42+1602.61+1304.47+1607.85+1306.16+1610.94L1307.8+1613.92C1309.49+1617.01+1314.17+1619.4+1318.26+1619.26L1322.7+1619.11C1326.8+1618.97+1332+1616.59+1334.32+1613.8L1341.27+1606.34L1346.76+1598.88C1349.09+1596.09+1352.03+1591.23+1353.33+1588.02L1359.04+1573.97C1360.34+1570.76+1362.65+1565.61+1364.19+1562.47L1365.57+1559.67C1367.11+1556.53+1369.31+1551.35+1370.48+1548.1L1375.31+1534.72" fill="none" stroke-linecap="round" opacity="1" stroke-linejoin="round"/>
<path stroke="#ffd700" stroke-width="7" d="M1352.37+1590.62C1351.61+1591.53+1347.13+1604.22+1347.13+1604.22C1346.3+1606.67+1345.46+1610.08+1347.23+1613.09C1349+1616.11+1354.47+1617.91+1358.72+1615.92C1362.98+1613.92+1365.51+1612.15+1366.95+1609.89L1372.44+1601.24C1373.88+1598.99+1376.13+1595.29+1377.48+1592.99L1383.33+1582.98" fill="none" stroke-linecap="round" opacity="1" stroke-linejoin="round"/>
<path stroke="#ffd700" stroke-width="7" d="M1457.31+1595.77L1464.53+1577.85C1465.56+1575.28+1466.91+1571.03+1467.53+1568.37L1470.84+1554.29L1475.14+1533.22C1475.69+1530.55+1476.37+1526.19+1476.67+1523.49L1477.28+1518.04C1477.58+1515.34+1479.31+1514.97+1481.15+1517.21L1483.38+1519.94C1485.21+1522.18+1488.98+1525.13+1491.79+1526.53L1493.25+1527.25C1496.05+1528.65+1503.83+1531.62+1503.83+1531.62C1506.86+1532.63+1503.83+1531.62+1503.83+1531.62C1503.83+1531.62+1508.32+1535.49+1507.08+1538L1505.44+1541.34C1504.2+1543.85+1502.33+1547.96+1501.27+1550.53L1498.33+1557.61L1494.15+1568.85C1493.19+1571.44+1492.01+1575.71+1491.51+1578.39L1490.77+1582.34C1490.28+1585.02+1489.84+1589.39+1489.79+1592.1L1489.74+1595.59C1489.7+1598.3+1490.73+1602.51+1492.04+1604.99L1492.57+1605.98C1493.88+1608.46+1497.47+1609.8+1500.59+1608.96L1503.69+1608.14C1506.8+1607.3+1510.99+1604.91+1513.04+1602.8L1518.51+1597.15C1520.56+1595.03+1522.89+1591.19+1523.72+1588.57L1524.75+1585.29C1525.57+1582.67+1526.77+1578.39+1527.43+1575.73L1528.15+1572.84" fill="none" stroke-linecap="round" opacity="1" stroke-linejoin="round"/>
<path stroke="#ffd700" stroke-width="7" d="M1655.91+1508.05L1651.26+1503.52C1649+1501.32+1644.32+1498.23+1637.12+1499.95C1628.94+1501.91+1624.92+1507.3+1624.92+1507.3C1622.52+1509.4+1619.71+1513.33+1618.64+1516.09L1615.9+1523.16C1614.83+1525.91+1613.48+1530.45+1612.87+1533.29L1611.19+1541.15C1610.58+1543.99+1610.19+1548.64+1610.32+1551.53L1610.63+1558.75C1610.76+1561.64+1611.41+1566.28+1612.09+1569.11L1613.52+1575.08C1614.2+1577.92+1616.76+1581.86+1619.25+1583.89L1623.64+1587.47C1626.13+1589.5+1630.8+1590.34+1634.08+1589.35L1638.71+1587.95C1641.99+1586.96+1645.84+1584.04+1647.31+1581.41L1650.72+1575.32C1652.19+1572.7+1653.61+1568.24+1653.89+1565.35L1654.82+1555.7C1655.1+1552.82+1655.36+1548.14+1655.41+1545.25L1655.63+1531.28C1655.68+1528.39+1655.9+1523.71+1656.12+1520.83L1658.04+1496.48" fill="none" stroke-linecap="round" opacity="1" stroke-linejoin="round"/>
<path stroke="#ffd700" stroke-width="7" d="M1655.28+1554.85L1656.42+1566.03C1656.46+1568.54+1656.81+1574.24+1660.32+1576.53C1663.84+1578.82+1664.63+1579.21+1667.94+1578.77C1671.26+1578.33+1672.52+1579.39+1677.25+1570.38C1677.96+1569.04+1680.01+1562.7+1680.67+1560.83C1684.38+1550.18+1684.45+1538.26+1684.45+1538.26" fill="none" stroke-linecap="round" opacity="1" stroke-linejoin="round"/>
<path stroke="#ffd700" stroke-width="7" d="M1749.54+1412.19L1751.09+1427.67C1751.45+1431.3+1751.8+1437.2+1751.86+1440.84L1752.12+1455.58C1752.18+1459.22+1752.56+1465.11+1752.97+1468.74L1755.41+1490.5L1759.01+1519.76C1759.45+1523.38+1761.15+1529.06+1762.81+1532.43L1763.66+1534.17C1765.31+1537.55+1769.91+1541.5+1773.92+1543L1774.55+1543.24C1778.56+1544.74+1788.53+1542.41+1788.53+1542.41C1792.25+1540.45+1788.53+1542.41+1788.53+1542.41C1788.53+1542.41+1796.14+1536.01+1797.24+1532.48L1800.12+1523.2C1801.21+1519.67+1802.02+1513.86+1801.91+1510.22L1801.61+1500.02" fill="none" stroke-linecap="round" opacity="1" stroke-linejoin="round"/>
<path stroke="#ffd700" stroke-width="7" d="M1736.43+1484.03L1735.95+1477.59C1735.68+1473.88+1741.44+1466.32+1741.44+1466.32C1744.75+1463.81+1741.44+1466.32+1741.44+1466.32C1741.44+1466.32+1750.68+1460.4+1754.68+1458.72L1756.07+1458.14C1760.08+1456.45+1766.24+1453.29+1769.84+1451.07L1770.25+1450.82C1773.85+1448.59+1779.2+1444.55+1782.2+1441.78L1783.12+1440.92" fill="none" stroke-linecap="round" opacity="1" stroke-linejoin="round"/>
<path stroke="#ffd700" stroke-width="7" d="M1964.76+1431.9C1964.76+1431.9+1987.48+1413.76+1992.02+1404.35C1996.55+1394.95+1997.72+1392.02+1998.04+1383.1C1998.36+1374.18+1996.6+1371.29+1993.29+1364.47C1989.98+1357.64+1986.26+1356.04+1983.68+1353.67L1983.53+1353.52C1980.95+1351.15+1975.84+1349.85+1972.1+1350.61L1971.68+1350.69C1967.94+1351.45+1965.37+1352.96+1962.28+1357.41C1959.18+1361.86+1959.49+1365.33+1959.31+1368.51L1958.93+1375.08C1958.74+1378.26+1959.22+1383.37+1960+1386.49L1962.71+1397.43C1963.49+1400.55+1965.63+1405.34+1967.5+1408.12L1976.8+1422.01C1978.67+1424.8+1983.04+1428.09+1986.57+1429.36L1994.33+1432.16C1997.86+1433.44+2003.47+1433.24+2006.85+1431.72L2013.56+1428.72C2016.94+1427.2+2020.7+1423.53+2021.96+1420.52L2025.05+1413.11C2026.3+1410.1+2026.85+1405.1+2026.28+1401.95L2024.94+1394.61C2024.36+1391.46+2022.85+1386.48+2021.56+1383.48L2017.05+1373" fill="none" stroke-linecap="round" opacity="1" stroke-linejoin="round"/>
<path stroke="#ffd700" stroke-width="7" d="M1859.07+1417.69L1860.48+1426.96C1860.93+1429.86+1861.85+1434.53+1862.55+1437.39L1869.41+1465.37L1871.29+1473.17C1871.98+1476.03+1873.8+1480.48+1875.35+1483.11L1878.23+1487.97C1879.78+1490.59+1886.11+1495.93+1886.11+1495.93C1888.92+1497.7+1886.11+1495.93+1886.11+1495.93C1886.11+1495.93+1892.65+1497.1+1894.45+1494.59L1895.5+1493.14C1897.3+1490.63+1898.76+1486.23+1898.76+1483.31L1898.76+1473.71C1898.76+1470.79+1898.41+1466.07+1897.98+1463.17L1896.73+1454.67" fill="none" stroke-linecap="round" opacity="1" stroke-linejoin="round"/>
<path stroke="#ffd700" stroke-width="7" d="M1855.24+1402.37C1855.34+1402.22+1855.53+1402.08+1855.78+1402.02C1856.02+1401.96+1856.32+1401.97+1856.59+1402.09C1856.86+1402.21+1857.1+1402.43+1857.2+1402.72C1857.31+1403+1857.28+1403.35+1857.08+1403.67C1856.87+1403.98+1856.5+1404.26+1856.01+1404.38C1855.52+1404.5+1854.92+1404.47+1854.38+1404.24C1853.85+1404+1853.38+1403.56+1853.17+1402.98C1852.96+1402.41+1853.01+1401.71+1853.42+1401.09C1853.82+1400.46+1854.58+1399.91+1855.55+1399.66C1856.53+1399.42+1857.72+1399.48+1858.79+1399.95C1859.86+1400.43+1860.8+1401.31+1861.22+1402.45C1861.64+1403.59+1861.53+1404.99+1860.72+1406.24C1859.92+1407.49+1858.41+1408.59+1856.46+1409.08C1854.51+1409.57+1852.13+1409.44+1849.99+1408.5C1847.86+1407.56+1845.99+1405.79+1845.15+1403.51C1844.31+1401.23+1844.53+1398.45+1846.14+1395.95C1847.75+1393.45+1850.76+1391.27+1854.65+1390.28C1858.54+1389.3+1863.29+1389.56+1867.55+1391.44C1871.82+1393.32+1875.55+1396.85+1877.23+1401.4C1878.9+1405.95+1878.46+1411.5+1875.25+1416.49" fill="none" stroke-linecap="round" opacity="1" stroke-linejoin="round"/>
</g>
<g id="Слой 1" vectornator:layerName="Слой 1">
<path stroke="#ffd700" stroke-width="7" d="M694.539+707.936C694.539+707.936+698.135+713.762+693.902+715.154C689.669+716.546+687.648+714.159+686.472+712.547C684.774+710.22+684.816+708.131+686.354+704.366C687.892+700.601+691.171+699.232+694.883+699.601C699.436+700.054+702.231+701.532+703.151+707.617C704.174+714.391+700.065+717.839+698.017+720.717L697.667+721.208C695.618+724.086+691.094+726.46+687.562+726.511C687.562+726.511+674.896+725.771+669.501+721.022C664.107+716.274+660.101+708.625+656.661+697.761C653.22+686.898+649.354+678.013+650.649+662.383C651.944+646.754+655.866+637.914+663.888+627.975C671.909+618.036+681.872+613.019+685.295+612.148C685.295+612.148+697.1+607.889+708.399+609.92C719.697+611.952+724.407+615.328+732.332+620.723C740.257+626.119+743.752+629.592+748.615+638.959C753.477+648.326+754.786+651.943+757.715+661.847C760.645+671.75+759.538+684.171+756.513+691.081C753.489+697.991+748.585+706.044+745.79+708.204L739.679+712.925C736.884+715.085+737.32+715.886+740.653+714.715L747.499+712.31C750.832+711.139+755.652+712.117+758.265+714.494C758.265+714.494+765.644+718.88+771.892+727.774C778.14+736.668+781.619+740.145+790.641+745.766C799.663+751.387+805.731+753.693+813.55+755.952C821.37+758.211+828.13+758.1+837.105+756.997C846.081+755.893+856.282+748.273+856.282+748.273C859.215+746.305+860.678+744.925+862.287+737.962L861.28+729.737" fill="none" stroke-linecap="round" opacity="1" stroke-linejoin="round"/>
<path stroke="#ffd700" stroke-width="7" d="M707.53+661.807L752.151+796.288" fill="none" stroke-linecap="round" opacity="1" stroke-linejoin="round"/>
<path stroke="#ffd700" stroke-width="7" d="M857.868+646.468L871.241+632.604C873.416+630.379+877.837+625.455+880.012+620.712C882.188+615.97+884.871+608.635+885.77+601.526C886.669+594.416+886.548+583.653+883.233+579.635C879.918+575.616+870.906+571.637+865.319+576.323C859.733+581.009+858.986+582.076+857.013+590.105C855.041+598.135+855.314+602.855+855.743+612.163C856.173+621.47+856.697+622.689+858.269+627.937C859.84+633.186+860.839+635.165+862.912+637.485C862.912+637.485+865.898+644.281+870.98+646.512C876.062+648.744+882.247+650.846+887.328+650.555C892.409+650.263+897.967+645.997+901.163+636.089C904.359+626.182+902.735+602.356+902.735+602.356" fill="none" stroke-linecap="round" opacity="1" stroke-linejoin="round"/>
<path stroke="#ffd700" stroke-width="7" d="M1143.73+416.088L1140.04+439.71C1139.31+444.351+1138.03+451.858+1137.17+456.477L1133.25+477.57L1128.88+504.88L1125.85+526.315C1125.19+530.966+1125.94+536.939+1130.26+541.141C1134.57+545.343+1139.11+545.565+1143.12+543.123L1143.14+543.109C1147.16+540.667+1150.92+536.199+1153.54+530.777C1156.15+525.355+1162.64+507.78+1162.64+507.78" fill="none" stroke-linecap="round" opacity="1" stroke-linejoin="round"/>
<path stroke="#ffd700" stroke-width="7" d="M1117.24+478.621C1117.24+478.621+1117.35+472.67+1119.91+468.471C1122.47+464.273+1127.12+462.564+1127.12+462.564C1129.89+461.873+1127.12+462.564+1127.12+462.564C1127.12+462.564+1134.32+460.586+1137.02+459.689L1143.13+457.66C1145.84+456.763+1149.81+454.568+1152.01+452.758L1163.12+443.845" fill="none" stroke-linecap="round" opacity="1" stroke-linejoin="round"/>
<path stroke="#ffd700" stroke-width="7" d="M1310.77+456.266L1307.28+446.791C1305.84+443.342+1303.27+440.533+1297.97+439.576C1292.67+438.619+1286.03+441.317+1280.78+445.598C1275.53+449.878+1271.27+453.75+1266.12+461.305C1260.98+468.861+1256.28+481.135+1255.8+488.785C1255.32+496.436+1253.83+504.22+1257.93+511.681C1262.03+519.142+1262.62+519.594+1266.61+521.51C1270.61+523.427+1276.23+521.32+1278.83+518.637L1283.94+513.372C1286.55+510.688+1289.82+505.712+1291.25+502.257L1297.25+487.763C1298.68+484.309+1301.13+478.764+1302.71+475.379L1306.27+467.793C1307.86+464.408+1310.17+458.81+1311.43+455.289L1317.27+438.964" fill="none" stroke-linecap="round" opacity="1" stroke-linejoin="round"/>
<path stroke="#ffd700" stroke-width="7" d="M1299.8+481.494L1294.03+499.563C1293.3+502.549+1292.8+507.458+1292.91+510.528C1292.91+510.528+1295.15+518.225+1298.75+518.384C1302.35+518.544+1305.69+516.165+1307.4+513.61L1311.64+507.257C1313.34+504.702+1315.77+500.368+1317.05+497.578L1323.25+484.121" fill="none" stroke-linecap="round" opacity="1" stroke-linejoin="round"/>
<path stroke="#ffd700" stroke-width="7" d="M1443.32+444.105L1429.04+468.77C1428.77+469.228+1420.4+482.066+1416.29+492.466C1412.17+502.865+1411.85+506.288+1411.65+512.039C1411.46+517.79+1412.67+522.236+1418.26+522.292C1423.85+522.348+1431.97+515+1437.73+509.901C1443.49+504.802+1457.2+484.789+1457.2+484.789L1475.38+456.677C1475.68+456.243+1475.68+456.241+1475.38+456.674C1475.38+456.674+1440.19+513.362+1440.46+522.109C1440.74+530.856+1447.71+530.216+1454.23+526.42C1460.75+522.624+1469.74+510.337+1469.74+510.337C1470.1+509.951+1481+494.614+1481+494.614" fill="none" stroke-linecap="round" opacity="1" stroke-linejoin="round"/>
<path stroke="#ffd700" stroke-width="7" d="M1553.44+527.468L1572.04+510.64C1574.95+508.006+1579.43+503.505+1582.05+500.585L1592.53+488.909C1595.15+485.989+1598.93+480.904+1600.97+477.552L1605.08+470.804C1607.12+467.452+1610.42+467.45+1612.47+470.8L1613.57+472.607C1615.61+475.958+1619.19+481.207+1621.57+484.332L1622.73+485.859C1625.1+488.984+1624.63+493.61+1621.67+496.193L1611.57+505.027L1595.89+519.287C1592.98+521.927+1589.08+526.554+1585.2+531.5C1581.32+536.447+1575.77+546.47+1576.66+550.651C1577.54+554.833+1580.31+555.884+1585.43+556.227C1590.54+556.571+1598.75+548.726+1603.83+545.123C1608.91+541.519+1620.79+531.596+1620.79+531.596" fill="none" stroke-linecap="round" opacity="1" stroke-linejoin="round"/>
<path stroke="#ffd700" stroke-width="7" d="M1763.87+568.109C1763.87+568.109+1767.37+559.182+1766.55+553.537C1765.73+547.892+1764.06+542.884+1751.31+541.49C1738.56+540.096+1721.27+549.429+1714.47+553.344C1707.67+557.259+1697.22+566.896+1693.04+573.978C1688.86+581.061+1684.11+589.595+1685.44+599.308C1686.77+609.021+1697.13+610.29+1704.62+609.442C1712.11+608.593+1736.52+590.636+1736.52+590.636C1736.71+590.527+1779.39+556.77+1779.39+556.77C1779.77+556.458+1779.77+556.458+1779.39+556.77C1779.39+556.77+1717.79+606.455+1718.33+613.29C1718.87+620.125+1725.23+617.808+1730.71+616.824C1736.18+615.84+1761.42+597.824+1761.42+597.824" fill="none" stroke-linecap="round" opacity="1" stroke-linejoin="round"/>
<path stroke="#ffd700" stroke-width="7" d="M1879.23+629.534L1806.66+671.073" fill="none" stroke-linecap="round" opacity="1" stroke-linejoin="round"/>
<path stroke="#ffd700" stroke-width="7" d="M1855.38+643.867L1884.2+641.536C1888.76+641.167+1895.04+640.567+1900.21+643.771C1905.37+646.976+1906.12+649.545+1904.87+654.354C1903.62+659.163+1897.55+665.538+1893.34+667.331L1884.16+671.245C1879.95+673.038+1873.23+676.147+1869.14+678.188L1859.65+682.923C1855.56+684.964+1848.7+688.44+1846.53+692.608C1844.36+696.776+1843.35+701.164+1847.29+703.49L1847.6+703.676C1851.54+706.001+1858.18+706.54+1862.44+704.879L1888.12+694.869" fill="none" stroke-linecap="round" opacity="1" stroke-linejoin="round"/>
<path stroke="#ffd700" stroke-width="7" d="M2050.91+725.847L1952.8+758.806C1947.33+760.647+1938.85+765.166+1934.91+770.491C1930.98+775.816+1930.99+781.483+1934.89+787.506C1938.79+793.529+1946.01+795.05+1951.73+794.227L1981.54+788.6" fill="none" stroke-linecap="round" opacity="1" stroke-linejoin="round"/>
<path stroke="#ffd700" stroke-width="7" d="M1980.55+733.444L1988.39+732.185C1992.41+731.54+1998.14+733.195+2001.19+735.882L2006.39+740.447C2009.44+743.134+2016.69+750.927+2016.69+750.927C2019.32+754.027+2016.69+750.927+2016.69+750.927C2016.69+750.927+2024.31+758.205+2027.82+760.259L2032.68+763.099" fill="none" stroke-linecap="round" opacity="1" stroke-linejoin="round"/>
<path stroke="#ffd700" stroke-width="7" d="M991.305+543.524L996.085+532.063C997.331+529.077+998.926+524.1+999.648+520.946L1002.77+507.295C1003.5+504.141+1003.14+500.458+1001.98+498.434C1000.82+496.411+997.052+494.537+994.869+498.065C992.687+501.593+996.773+510.068+998.756+512.625L1002.44+517.378C1004.42+519.935+1007.48+524.195+1009.26+526.893L1018.75+543.022C1020.53+545.72+1025+552.251+1026.3+558.868C1027.61+565.484+1027.86+566.95+1026.02+573.352C1024.18+579.754+1022.44+583.321+1017.46+587.499C1012.47+591.677+1005.32+591.278+1005.32+591.278C1004.02+591.721+996.258+590.175+992.797+585.091C989.335+580.008+988.974+577.301+988.657+574.081L987.037+557.627" fill="none" stroke-linecap="round" opacity="1" stroke-linejoin="round"/>
<path stroke="#ffd700" stroke-width="7" d="M1923.45+1037.6L2205.83+1038.4" fill="none" stroke-linecap="round" opacity="1" stroke-linejoin="round"/>
<path stroke="#ffd700" stroke-width="7" d="M540.64+1018.09L823.013+1018.89" fill="none" stroke-linecap="round" opacity="1" stroke-linejoin="round"/>
</g>
</svg>
